<svg xmlns="http://www.w3.org/2000/svg" width="122" height="30" viewBox="0 0 122 30">
  <g id="logo" transform="translate(-662 -296)">
    <rect id="Rectangle_707" data-name="Rectangle 707" width="122" height="30" transform="translate(662 296)" fill="none"/>
    <path id="Path_3666" data-name="Path 3666" d="M81.893,68.654V57.359H79.607a2.208,2.208,0,0,1-.659,1.711,2.749,2.749,0,0,1-1.77.506h-.286v1.858h2.43v7.22ZM89.254,47.21V51.5H84.966v2.574h4.288v4.288h2.574V54.072h4.288V51.5H91.828V47.21ZM68.67,51.5V74.657H91.828V61.434H89.254V72.083H71.244V54.072H81.895V51.5ZM177.3,65.67c.094,2.868,2.184,4.5,5.869,4.5,3.057,0,5.28-1.539,5.28-4.292,0-2.926-2.278-3.591-5.072-4.2-2.014-.438-2.963-.759-2.963-1.86,0-.969.969-1.6,2.45-1.6a2.343,2.343,0,0,1,2.622,2.052h2.64c-.21-2.736-2.184-4.236-5.244-4.236-3.019,0-5.2,1.387-5.2,4.065,0,2.83,2.222,3.475,4.654,4.027,2.07.476,3.363.741,3.363,2.07,0,1.255-1.235,1.749-2.64,1.749-1.936,0-2.868-.645-3.057-2.28Zm-12.555-.17c0,2.943,1.842,4.6,5.357,4.6,3.475,0,5.262-1.691,5.262-4.6V56.288H172.61v9.174a2.286,2.286,0,0,1-2.564,2.432c-1.842,0-2.546-.989-2.546-2.394V56.288h-2.754Zm-10.6,4.368h9.136v-2.3H156.9V56.288h-2.754Zm-9.916-7.16h2.85a1.938,1.938,0,0,0,2.2-2.032,1.9,1.9,0,0,0-2.164-1.994h-2.888v4.027Zm-2.85-6.421h5.965a4.753,4.753,0,0,1,3.551,1.273,4.349,4.349,0,0,1,1.215,3.1c0,2.564-1.691,4.292-4.54,4.292h-3.343v4.92h-2.85V56.288Zm-12.705,13.58h10.047v-2.3h-7.294V63.9h6.345v-2.26h-6.345V58.6h7.236V56.286h-9.992V69.869Zm-14.074,0h2.716V62.861c0-.949-.076-2.374-.076-2.374h.038s.532,1.159.969,1.88l4.634,7.5h2.66V56.288H122.83v7.124c0,.949.076,2.356.076,2.356h-.038s-.514-1.159-.949-1.9l-4.52-7.58h-2.792V69.869Zm-5.166-6.762c0-2.716-1.215-4.824-3.7-4.824s-3.761,2.108-3.761,4.824c0,2.7,1.273,4.806,3.761,4.806S109.439,65.8,109.439,63.106Zm-10.277,0c0-4.065,2.546-7.084,6.552-7.084s6.534,3.019,6.534,7.084-2.526,7.066-6.534,7.066-6.552-3-6.552-7.066Z" transform="translate(594.255 249.715)" fill="#00050f"/>
  </g>
</svg>
